<?xml version="1.0" encoding="UTF-8" standalone="no"?>
<svg viewBox="0 0 450 300" xmlns="http://www.w3.org/2000/svg" xmlns:xlink="http://www.w3.org/1999/xlink">

<title>Gnuplot</title>
<desc>Produced by GNUPLOT 5.4 patchlevel 2 </desc>

<g id="gnuplot_canvas">

<rect x="0" y="0" width="450" height="300" fill="none"/>
<defs>

	<circle id="gpDot" r="0.5" stroke-width="0.5" stroke="currentColor"/>
	<path id="gpPt0" stroke-width="0.222" stroke="currentColor" d="M-1,0 h2 M0,-1 v2"/>
	<path id="gpPt1" stroke-width="0.222" stroke="currentColor" d="M-1,-1 L1,1 M1,-1 L-1,1"/>
	<path id="gpPt2" stroke-width="0.222" stroke="currentColor" d="M-1,0 L1,0 M0,-1 L0,1 M-1,-1 L1,1 M-1,1 L1,-1"/>
	<rect id="gpPt3" stroke-width="0.222" stroke="currentColor" x="-1" y="-1" width="2" height="2"/>
	<rect id="gpPt4" stroke-width="0.222" stroke="currentColor" fill="currentColor" x="-1" y="-1" width="2" height="2"/>
	<circle id="gpPt5" stroke-width="0.222" stroke="currentColor" cx="0" cy="0" r="1"/>
	<use xlink:href="#gpPt5" id="gpPt6" fill="currentColor" stroke="none"/>
	<path id="gpPt7" stroke-width="0.222" stroke="currentColor" d="M0,-1.33 L-1.33,0.67 L1.33,0.67 z"/>
	<use xlink:href="#gpPt7" id="gpPt8" fill="currentColor" stroke="none"/>
	<use xlink:href="#gpPt7" id="gpPt9" stroke="currentColor" transform="rotate(180)"/>
	<use xlink:href="#gpPt9" id="gpPt10" fill="currentColor" stroke="none"/>
	<use xlink:href="#gpPt3" id="gpPt11" stroke="currentColor" transform="rotate(45)"/>
	<use xlink:href="#gpPt11" id="gpPt12" fill="currentColor" stroke="none"/>
	<path id="gpPt13" stroke-width="0.222" stroke="currentColor" d="M0,1.330 L1.265,0.411 L0.782,-1.067 L-0.782,-1.076 L-1.265,0.411 z"/>
	<use xlink:href="#gpPt13" id="gpPt14" fill="currentColor" stroke="none"/>
	<filter id="textbox" filterUnits="objectBoundingBox" x="0" y="0" height="1" width="1">
	  <feFlood flood-color="white" flood-opacity="1" result="bgnd"/>
	  <feComposite in="SourceGraphic" in2="bgnd" operator="atop"/>
	</filter>
	<filter id="greybox" filterUnits="objectBoundingBox" x="0" y="0" height="1" width="1">
	  <feFlood flood-color="lightgrey" flood-opacity="1" result="grey"/>
	  <feComposite in="SourceGraphic" in2="grey" operator="atop"/>
	</filter>
</defs>
<g fill="none" color="white" stroke="currentColor" stroke-width="1.00" stroke-linecap="butt" stroke-linejoin="miter">
</g>
<g fill="none" color="black" stroke="currentColor" stroke-width="1.00" stroke-linecap="butt" stroke-linejoin="miter">
	<path stroke="black" d="M80.92,242.40 L89.92,242.40  "/>	<g transform="translate(72.53,246.30)" stroke="none" fill="black" font-family="Helvetica" font-size="12.00" text-anchor="end">
		<text><tspan font-family="Helvetica"> 0</tspan></text>
	</g>
</g>
<g fill="none" color="black" stroke="currentColor" stroke-width="1.00" stroke-linecap="butt" stroke-linejoin="miter">
	<path stroke="black" d="M80.92,205.85 L89.92,205.85  "/>	<g transform="translate(72.53,209.75)" stroke="none" fill="black" font-family="Helvetica" font-size="12.00" text-anchor="end">
		<text><tspan font-family="Helvetica"> 0.02</tspan></text>
	</g>
</g>
<g fill="none" color="black" stroke="currentColor" stroke-width="1.00" stroke-linecap="butt" stroke-linejoin="miter">
	<path stroke="black" d="M80.92,169.31 L89.92,169.31  "/>	<g transform="translate(72.53,173.21)" stroke="none" fill="black" font-family="Helvetica" font-size="12.00" text-anchor="end">
		<text><tspan font-family="Helvetica"> 0.04</tspan></text>
	</g>
</g>
<g fill="none" color="black" stroke="currentColor" stroke-width="1.00" stroke-linecap="butt" stroke-linejoin="miter">
	<path stroke="black" d="M80.92,132.76 L89.92,132.76  "/>	<g transform="translate(72.53,136.66)" stroke="none" fill="black" font-family="Helvetica" font-size="12.00" text-anchor="end">
		<text><tspan font-family="Helvetica"> 0.06</tspan></text>
	</g>
</g>
<g fill="none" color="black" stroke="currentColor" stroke-width="1.00" stroke-linecap="butt" stroke-linejoin="miter">
	<path stroke="black" d="M80.92,96.21 L89.92,96.21  "/>	<g transform="translate(72.53,100.11)" stroke="none" fill="black" font-family="Helvetica" font-size="12.00" text-anchor="end">
		<text><tspan font-family="Helvetica"> 0.08</tspan></text>
	</g>
</g>
<g fill="none" color="black" stroke="currentColor" stroke-width="1.00" stroke-linecap="butt" stroke-linejoin="miter">
	<path stroke="black" d="M80.92,59.67 L89.92,59.67  "/>	<g transform="translate(72.53,63.57)" stroke="none" fill="black" font-family="Helvetica" font-size="12.00" text-anchor="end">
		<text><tspan font-family="Helvetica"> 0.1</tspan></text>
	</g>
</g>
<g fill="none" color="black" stroke="currentColor" stroke-width="1.00" stroke-linecap="butt" stroke-linejoin="miter">
	<path stroke="black" d="M80.92,23.12 L89.92,23.12  "/>	<g transform="translate(72.53,27.02)" stroke="none" fill="black" font-family="Helvetica" font-size="12.00" text-anchor="end">
		<text><tspan font-family="Helvetica"> 0.12</tspan></text>
	</g>
</g>
<g fill="none" color="black" stroke="currentColor" stroke-width="1.00" stroke-linecap="butt" stroke-linejoin="miter">
	<path stroke="black" d="M93.88,242.40 L93.88,233.40  "/>	<g transform="translate(93.88,264.30)" stroke="none" fill="black" font-family="Helvetica" font-size="12.00" text-anchor="middle">
		<text><tspan font-family="Helvetica"> 195</tspan></text>
	</g>
</g>
<g fill="none" color="black" stroke="currentColor" stroke-width="1.00" stroke-linecap="butt" stroke-linejoin="miter">
	<path stroke="black" d="M137.84,242.40 L137.84,233.40  "/>	<g transform="translate(137.84,264.30)" stroke="none" fill="black" font-family="Helvetica" font-size="12.00" text-anchor="middle">
		<text><tspan font-family="Helvetica"> 200</tspan></text>
	</g>
</g>
<g fill="none" color="black" stroke="currentColor" stroke-width="1.00" stroke-linecap="butt" stroke-linejoin="miter">
	<path stroke="black" d="M181.80,242.40 L181.80,233.40  "/>	<g transform="translate(181.80,264.30)" stroke="none" fill="black" font-family="Helvetica" font-size="12.00" text-anchor="middle">
		<text><tspan font-family="Helvetica"> 205</tspan></text>
	</g>
</g>
<g fill="none" color="black" stroke="currentColor" stroke-width="1.00" stroke-linecap="butt" stroke-linejoin="miter">
	<path stroke="black" d="M225.77,242.40 L225.77,233.40  "/>	<g transform="translate(225.77,264.30)" stroke="none" fill="black" font-family="Helvetica" font-size="12.00" text-anchor="middle">
		<text><tspan font-family="Helvetica"> 210</tspan></text>
	</g>
</g>
<g fill="none" color="black" stroke="currentColor" stroke-width="1.00" stroke-linecap="butt" stroke-linejoin="miter">
	<path stroke="black" d="M269.73,242.40 L269.73,233.40  "/>	<g transform="translate(269.73,264.30)" stroke="none" fill="black" font-family="Helvetica" font-size="12.00" text-anchor="middle">
		<text><tspan font-family="Helvetica"> 215</tspan></text>
	</g>
</g>
<g fill="none" color="black" stroke="currentColor" stroke-width="1.00" stroke-linecap="butt" stroke-linejoin="miter">
	<path stroke="black" d="M313.70,242.40 L313.70,233.40  "/>	<g transform="translate(313.70,264.30)" stroke="none" fill="black" font-family="Helvetica" font-size="12.00" text-anchor="middle">
		<text><tspan font-family="Helvetica"> 220</tspan></text>
	</g>
</g>
<g fill="none" color="black" stroke="currentColor" stroke-width="1.00" stroke-linecap="butt" stroke-linejoin="miter">
	<path stroke="black" d="M357.66,242.40 L357.66,233.40  "/>	<g transform="translate(357.66,264.30)" stroke="none" fill="black" font-family="Helvetica" font-size="12.00" text-anchor="middle">
		<text><tspan font-family="Helvetica"> 225</tspan></text>
	</g>
</g>
<g fill="none" color="black" stroke="currentColor" stroke-width="1.00" stroke-linecap="butt" stroke-linejoin="miter">
	<path stroke="black" d="M401.62,242.40 L401.62,233.40  "/>	<g transform="translate(401.62,264.30)" stroke="none" fill="black" font-family="Helvetica" font-size="12.00" text-anchor="middle">
		<text><tspan font-family="Helvetica"> 230</tspan></text>
	</g>
</g>
<g fill="none" color="black" stroke="currentColor" stroke-width="1.00" stroke-linecap="butt" stroke-linejoin="miter">
</g>
<g fill="none" color="black" stroke="currentColor" stroke-width="1.00" stroke-linecap="butt" stroke-linejoin="miter">
	<path stroke="black" d="M80.92,18.01 L80.92,242.40 L424.82,242.40 L424.82,18.01 L80.92,18.01 Z  "/></g>
<g fill="none" color="black" stroke="currentColor" stroke-width="1.00" stroke-linecap="butt" stroke-linejoin="miter">
	<g transform="translate(19.18,130.21) rotate(270)" stroke="none" fill="black" font-family="Helvetica" font-size="12.00" text-anchor="middle">
		<text><tspan font-family="Helvetica">Density (a.u.)</tspan></text>
	</g>
</g>
<g fill="none" color="black" stroke="currentColor" stroke-width="1.00" stroke-linecap="butt" stroke-linejoin="miter">
	<g transform="translate(252.87,291.30)" stroke="none" fill="black" font-family="Helvetica" font-size="12.00" text-anchor="middle">
		<text><tspan font-family="Helvetica">Average time (ns)</tspan></text>
	</g>
</g>
<g fill="none" color="black" stroke="currentColor" stroke-width="1.00" stroke-linecap="butt" stroke-linejoin="miter">
</g>
	<g id="gnuplot_plot_1"><title>PDF</title>
<g fill="none" color="black" stroke="currentColor" stroke-width="1.00" stroke-linecap="butt" stroke-linejoin="miter">
	<g stroke="none" shape-rendering="crispEdges">
		<polygon fill="rgb( 31, 120, 180)" fill-opacity="0.250000" points="80.92,242.16 81.61,242.12 82.30,242.09 82.99,242.05 83.68,242.01 84.37,241.96 85.06,241.91 85.74,241.85 86.43,241.78 87.12,241.71 87.81,241.63 88.50,241.54 89.19,241.45 89.88,241.34 90.57,241.23 91.26,241.10 91.95,240.96 92.64,240.81 93.33,240.64 94.01,240.46 94.70,240.26 95.39,240.05 96.08,239.81 96.77,239.56 97.46,239.29 98.15,238.99 98.84,238.67 99.53,238.33 100.22,237.95 100.91,237.55 101.60,237.12 102.28,236.66 102.97,236.17 103.66,235.64 104.35,235.07 105.04,234.47 105.73,233.82 106.42,233.14 107.11,232.41 107.80,231.63 108.49,230.81 109.18,229.94 109.87,229.01 110.55,228.04 111.24,227.01 111.93,225.93 112.62,224.78 113.31,223.58 114.00,222.32 114.69,221.00 115.38,219.62 116.07,218.17 116.76,216.65 117.45,215.07 118.14,213.43 118.82,211.71 119.51,209.93 120.20,208.08 120.89,206.16 121.58,204.17 122.27,202.11 122.96,199.99 123.65,197.79 124.34,195.53 125.03,193.20 125.72,190.80 126.41,188.34 127.09,185.81 127.78,183.22 128.47,180.57 129.16,177.86 129.85,175.10 130.54,172.27 131.23,169.40 131.92,166.47 132.61,163.50 133.30,160.48 133.99,157.41 134.68,154.31 135.37,151.17 136.05,148.00 136.74,144.79 137.43,141.56 138.12,138.31 138.81,135.03 139.50,131.74 140.19,128.43 140.88,125.11 141.57,121.79 142.26,118.47 142.95,115.14 143.64,111.82 144.32,108.51 145.01,105.22 145.70,101.93 146.39,98.67 147.08,95.43 147.77,92.21 148.46,89.03 149.15,85.87 149.84,82.76 150.53,79.68 151.22,76.65 151.91,73.66 152.59,70.72 153.28,67.83 153.97,64.99 154.66,62.22 155.35,59.50 156.04,56.85 156.73,54.26 157.42,51.74 158.11,49.29 158.80,46.91 159.49,44.61 160.18,42.39 160.86,40.25 161.55,38.19 162.24,36.22 162.93,34.33 163.62,32.54 164.31,30.84 165.00,29.23 165.69,27.72 166.38,26.31 167.07,25.01 167.76,23.81 168.45,22.71 169.13,21.72 169.82,20.85 170.51,20.09 171.20,19.44 171.89,18.91 172.58,18.50 173.27,18.21 173.96,18.05 174.65,18.01 175.34,18.10 176.03,18.31 176.72,18.66 177.40,19.13 178.09,19.74 178.78,20.47 179.47,21.34 180.16,22.35 180.85,23.48 181.54,24.75 182.23,26.14 182.92,27.67 183.61,29.33 184.30,31.11 184.99,33.02 185.68,35.06 186.36,37.21 187.05,39.48 187.74,41.87 188.43,44.37 189.12,46.97 189.81,49.68 190.50,52.48 191.19,55.38 191.88,58.37 192.57,61.44 193.26,64.59 193.95,67.80 194.63,71.09 195.32,74.43 196.01,77.82 196.70,81.26 197.39,84.74 198.08,88.25 198.77,91.78 199.46,95.34 200.15,98.90 200.84,102.47 201.53,106.04 202.22,109.60 202.90,113.14 203.59,116.67 204.28,120.16 204.97,123.63 205.66,127.05 206.35,130.43 207.04,133.76 207.73,137.04 208.42,140.26 209.11,143.41 209.80,146.50 210.49,149.52 211.17,152.46 211.86,155.33 212.55,158.12 213.24,160.83 213.93,163.46 214.62,166.00 215.31,168.46 216.00,170.83 216.69,173.12 217.38,175.32 218.07,177.44 218.76,179.47 219.44,181.42 220.13,183.29 220.82,185.07 221.51,186.78 222.20,188.40 222.89,189.95 223.58,191.43 224.27,192.84 224.96,194.17 225.65,195.44 226.34,196.65 227.03,197.79 227.71,198.87 228.40,199.90 229.09,200.88 229.78,201.80 230.47,202.68 231.16,203.52 231.85,204.31 232.54,205.06 233.23,205.77 233.92,206.45 234.61,207.10 235.30,207.72 235.99,208.31 236.67,208.87 237.36,209.42 238.05,209.94 238.74,210.44 239.43,210.93 240.12,211.40 240.81,211.85 241.50,212.30 242.19,212.73 242.88,213.15 243.57,213.56 244.26,213.97 244.94,214.36 245.63,214.75 246.32,215.14 247.01,215.52 247.70,215.90 248.39,216.27 249.08,216.64 249.77,217.01 250.46,217.37 251.15,217.73 251.84,218.09 252.53,218.44 253.21,218.80 253.90,219.15 254.59,219.50 255.28,219.84 255.97,220.18 256.66,220.52 257.35,220.86 258.04,221.19 258.73,221.52 259.42,221.84 260.11,222.16 260.80,222.48 261.48,222.79 262.17,223.09 262.86,223.39 263.55,223.69 264.24,223.97 264.93,224.25 265.62,224.52 266.31,224.79 267.00,225.04 267.69,225.29 268.38,225.53 269.07,225.77 269.75,225.99 270.44,226.21 271.13,226.41 271.82,226.61 272.51,226.80 273.20,226.98 273.89,227.16 274.58,227.32 275.27,227.48 275.96,227.63 276.65,227.77 277.34,227.90 278.03,228.03 278.71,228.14 279.40,228.26 280.09,228.36 280.78,228.46 281.47,228.56 282.16,228.65 282.85,228.74 283.54,228.82 284.23,228.90 284.92,228.98 285.61,229.05 286.30,229.13 286.98,229.20 287.67,229.27 288.36,229.35 289.05,229.42 289.74,229.50 290.43,229.58 291.12,229.66 291.81,229.74 292.50,229.83 293.19,229.92 293.88,230.01 294.57,230.11 295.25,230.21 295.94,230.32 296.63,230.43 297.32,230.55 298.01,230.68 298.70,230.80 299.39,230.94 300.08,231.08 300.77,231.22 301.46,231.37 302.15,231.52 302.84,231.68 303.52,231.84 304.21,232.01 304.90,232.18 305.59,232.35 306.28,232.53 306.97,232.70 307.66,232.88 308.35,233.06 309.04,233.24 309.73,233.41 310.42,233.59 311.11,233.77 311.79,233.94 312.48,234.11 313.17,234.28 313.86,234.44 314.55,234.60 315.24,234.75 315.93,234.90 316.62,235.04 317.31,235.17 318.00,235.30 318.69,235.41 319.38,235.52 320.06,235.62 320.75,235.71 321.44,235.79 322.13,235.86 322.82,235.92 323.51,235.97 324.20,236.01 324.89,236.04 325.58,236.05 326.27,236.06 326.96,236.06 327.65,236.04 328.34,236.01 329.02,235.98 329.71,235.93 330.40,235.87 331.09,235.81 331.78,235.73 332.47,235.65 333.16,235.55 333.85,235.45 334.54,235.34 335.23,235.23 335.92,235.11 336.61,234.98 337.29,234.85 337.98,234.71 338.67,234.57 339.36,234.43 340.05,234.29 340.74,234.14 341.43,234.00 342.12,233.85 342.81,233.70 343.50,233.56 344.19,233.42 344.88,233.28 345.56,233.14 346.25,233.01 346.94,232.89 347.63,232.77 348.32,232.66 349.01,232.55 349.70,232.45 350.39,232.36 351.08,232.28 351.77,232.20 352.46,232.14 353.15,232.08 353.83,232.04 354.52,232.00 355.21,231.98 355.90,231.97 356.59,231.96 357.28,231.97 357.97,231.99 358.66,232.02 359.35,232.06 360.04,232.11 360.73,232.17 361.42,232.24 362.10,232.32 362.79,232.42 363.48,232.52 364.17,232.63 364.86,232.75 365.55,232.88 366.24,233.02 366.93,233.16 367.62,233.31 368.31,233.47 369.00,233.64 369.69,233.81 370.37,233.99 371.06,234.18 371.75,234.36 372.44,234.56 373.13,234.75 373.82,234.95 374.51,235.15 375.20,235.36 375.89,235.56 376.58,235.77 377.27,235.98 377.96,236.19 378.65,236.39 379.33,236.60 380.02,236.81 380.71,237.01 381.40,237.21 382.09,237.41 382.78,237.61 383.47,237.81 384.16,238.00 384.85,238.19 385.54,238.37 386.23,238.55 386.92,238.73 387.60,238.90 388.29,239.07 388.98,239.24 389.67,239.39 390.36,239.55 391.05,239.70 391.74,239.84 392.43,239.98 393.12,240.12 393.81,240.25 394.50,240.37 395.19,240.49 395.87,240.60 396.56,240.71 397.25,240.82 397.94,240.92 398.63,241.01 399.32,241.10 400.01,241.19 400.70,241.27 401.39,241.35 402.08,241.42 402.77,241.49 403.46,241.56 404.14,241.62 404.83,241.68 405.52,241.73 406.21,241.78 406.90,241.83 407.59,241.87 408.28,241.92 408.97,241.95 409.66,241.99 410.35,242.03 411.04,242.06 411.73,242.09 412.41,242.11 413.10,242.14 413.79,242.16 414.48,242.18 415.17,242.20 415.86,242.22 416.55,242.24 417.24,242.25 417.93,242.27 418.62,242.28 419.31,242.29 420.00,242.30 420.68,242.31 421.37,242.32 422.06,242.33 422.75,242.34 423.44,242.34 424.13,242.35 424.82,242.35 424.82,242.40 424.13,242.40 423.44,242.40 422.75,242.40 422.06,242.40 421.37,242.40 420.68,242.40 420.00,242.40 419.31,242.40 418.62,242.40 417.93,242.40 417.24,242.40 416.55,242.40 415.86,242.40 415.17,242.40 414.48,242.40 413.79,242.40 413.10,242.40 412.41,242.40 411.73,242.40 411.04,242.40 410.35,242.40 409.66,242.40 408.97,242.40 408.28,242.40 407.59,242.40 406.90,242.40 406.21,242.40 405.52,242.40 404.83,242.40 404.14,242.40 403.46,242.40 402.77,242.40 402.08,242.40 401.39,242.40 400.70,242.40 400.01,242.40 399.32,242.40 398.63,242.40 397.94,242.40 397.25,242.40 396.56,242.40 395.87,242.40 395.19,242.40 394.50,242.40 393.81,242.40 393.12,242.40 392.43,242.40 391.74,242.40 391.05,242.40 390.36,242.40 389.67,242.40 388.98,242.40 388.29,242.40 387.60,242.40 386.92,242.40 386.23,242.40 385.54,242.40 384.85,242.40 384.16,242.40 383.47,242.40 382.78,242.40 382.09,242.40 381.40,242.40 380.71,242.40 380.02,242.40 379.33,242.40 378.65,242.40 377.96,242.40 377.27,242.40 376.58,242.40 375.89,242.40 375.20,242.40 374.51,242.40 373.82,242.40 373.13,242.40 372.44,242.40 371.75,242.40 371.06,242.40 370.37,242.40 369.69,242.40 369.00,242.40 368.31,242.40 367.62,242.40 366.93,242.40 366.24,242.40 365.55,242.40 364.86,242.40 364.17,242.40 363.48,242.40 362.79,242.40 362.10,242.40 361.42,242.40 360.73,242.40 360.04,242.40 359.35,242.40 358.66,242.40 357.97,242.40 357.28,242.40 356.59,242.40 355.90,242.40 355.21,242.40 354.52,242.40 353.83,242.40 353.15,242.40 352.46,242.40 351.77,242.40 351.08,242.40 350.39,242.40 349.70,242.40 349.01,242.40 348.32,242.40 347.63,242.40 346.94,242.40 346.25,242.40 345.56,242.40 344.88,242.40 344.19,242.40 343.50,242.40 342.81,242.40 342.12,242.40 341.43,242.40 340.74,242.40 340.05,242.40 339.36,242.40 338.67,242.40 337.98,242.40 337.29,242.40 336.61,242.40 335.92,242.40 335.23,242.40 334.54,242.40 333.85,242.40 333.16,242.40 332.47,242.40 331.78,242.40 331.09,242.40 330.40,242.40 329.71,242.40 329.02,242.40 328.34,242.40 327.65,242.40 326.96,242.40 326.27,242.40 325.58,242.40 324.89,242.40 324.20,242.40 323.51,242.40 322.82,242.40 322.13,242.40 321.44,242.40 320.75,242.40 320.06,242.40 319.38,242.40 318.69,242.40 318.00,242.40 317.31,242.40 316.62,242.40 315.93,242.40 315.24,242.40 314.55,242.40 313.86,242.40 313.17,242.40 312.48,242.40 311.79,242.40 311.11,242.40 310.42,242.40 309.73,242.40 309.04,242.40 308.35,242.40 307.66,242.40 306.97,242.40 306.28,242.40 305.59,242.40 304.90,242.40 304.21,242.40 303.52,242.40 302.84,242.40 302.15,242.40 301.46,242.40 300.77,242.40 300.08,242.40 299.39,242.40 298.70,242.40 298.01,242.40 297.32,242.40 296.63,242.40 295.94,242.40 295.25,242.40 294.57,242.40 293.88,242.40 293.19,242.40 292.50,242.40 291.81,242.40 291.12,242.40 290.43,242.40 289.74,242.40 289.05,242.40 288.36,242.40 287.67,242.40 286.98,242.40 286.30,242.40 285.61,242.40 284.92,242.40 284.23,242.40 283.54,242.40 282.85,242.40 282.16,242.40 281.47,242.40 280.78,242.40 280.09,242.40 279.40,242.40 278.71,242.40 278.03,242.40 277.34,242.40 276.65,242.40 275.96,242.40 275.27,242.40 274.58,242.40 273.89,242.40 273.20,242.40 272.51,242.40 271.82,242.40 271.13,242.40 270.44,242.40 269.75,242.40 269.07,242.40 268.38,242.40 267.69,242.40 267.00,242.40 266.31,242.40 265.62,242.40 264.93,242.40 264.24,242.40 263.55,242.40 262.86,242.40 262.17,242.40 261.48,242.40 260.80,242.40 260.11,242.40 259.42,242.40 258.73,242.40 258.04,242.40 257.35,242.40 256.66,242.40 255.97,242.40 255.28,242.40 254.59,242.40 253.90,242.40 253.21,242.40 252.53,242.40 251.84,242.40 251.15,242.40 250.46,242.40 249.77,242.40 249.08,242.40 248.39,242.40 247.70,242.40 247.01,242.40 246.32,242.40 245.63,242.40 244.94,242.40 244.26,242.40 243.57,242.40 242.88,242.40 242.19,242.40 241.50,242.40 240.81,242.40 240.12,242.40 239.43,242.40 238.74,242.40 238.05,242.40 237.36,242.40 236.67,242.40 235.99,242.40 235.30,242.40 234.61,242.40 233.92,242.40 233.23,242.40 232.54,242.40 231.85,242.40 231.16,242.40 230.47,242.40 229.78,242.40 229.09,242.40 228.40,242.40 227.71,242.40 227.03,242.40 226.34,242.40 225.65,242.40 224.96,242.40 224.27,242.40 223.58,242.40 222.89,242.40 222.20,242.40 221.51,242.40 220.82,242.40 220.13,242.40 219.44,242.40 218.76,242.40 218.07,242.40 217.38,242.40 216.69,242.40 216.00,242.40 215.31,242.40 214.62,242.40 213.93,242.40 213.24,242.40 212.55,242.40 211.86,242.40 211.17,242.40 210.49,242.40 209.80,242.40 209.11,242.40 208.42,242.40 207.73,242.40 207.04,242.40 206.35,242.40 205.66,242.40 204.97,242.40 204.28,242.40 203.59,242.40 202.90,242.40 202.22,242.40 201.53,242.40 200.84,242.40 200.15,242.40 199.46,242.40 198.77,242.40 198.08,242.40 197.39,242.40 196.70,242.40 196.01,242.40 195.32,242.40 194.63,242.40 193.95,242.40 193.26,242.40 192.57,242.40 191.88,242.40 191.19,242.40 190.50,242.40 189.81,242.40 189.12,242.40 188.43,242.40 187.74,242.40 187.05,242.40 186.36,242.40 185.68,242.40 184.99,242.40 184.30,242.40 183.61,242.40 182.92,242.40 182.23,242.40 181.54,242.40 180.85,242.40 180.16,242.40 179.47,242.40 178.78,242.40 178.09,242.40 177.40,242.40 176.72,242.40 176.03,242.40 175.34,242.40 174.65,242.40 173.96,242.40 173.27,242.40 172.58,242.40 171.89,242.40 171.20,242.40 170.51,242.40 169.82,242.40 169.13,242.40 168.45,242.40 167.76,242.40 167.07,242.40 166.38,242.40 165.69,242.40 165.00,242.40 164.31,242.40 163.62,242.40 162.93,242.40 162.24,242.40 161.55,242.40 160.86,242.40 160.18,242.40 159.49,242.40 158.80,242.40 158.11,242.40 157.42,242.40 156.73,242.40 156.04,242.40 155.35,242.40 154.66,242.40 153.97,242.40 153.28,242.40 152.59,242.40 151.91,242.40 151.22,242.40 150.53,242.40 149.84,242.40 149.15,242.40 148.46,242.40 147.77,242.40 147.08,242.40 146.39,242.40 145.70,242.40 145.01,242.40 144.32,242.40 143.64,242.40 142.95,242.40 142.26,242.40 141.57,242.40 140.88,242.40 140.19,242.40 139.50,242.40 138.81,242.40 138.12,242.40 137.43,242.40 136.74,242.40 136.05,242.40 135.37,242.40 134.68,242.40 133.99,242.40 133.30,242.40 132.61,242.40 131.92,242.40 131.23,242.40 130.54,242.40 129.85,242.40 129.16,242.40 128.47,242.40 127.78,242.40 127.09,242.40 126.41,242.40 125.72,242.40 125.03,242.40 124.34,242.40 123.65,242.40 122.96,242.40 122.27,242.40 121.58,242.40 120.89,242.40 120.20,242.40 119.51,242.40 118.82,242.40 118.14,242.40 117.45,242.40 116.76,242.40 116.07,242.40 115.38,242.40 114.69,242.40 114.00,242.40 113.31,242.40 112.62,242.40 111.93,242.40 111.24,242.40 110.55,242.40 109.87,242.40 109.18,242.40 108.49,242.40 107.80,242.40 107.11,242.40 106.42,242.40 105.73,242.40 105.04,242.40 104.35,242.40 103.66,242.40 102.97,242.40 102.28,242.40 101.60,242.40 100.91,242.40 100.22,242.40 99.53,242.40 98.84,242.40 98.15,242.40 97.46,242.40 96.77,242.40 96.08,242.40 95.39,242.40 94.70,242.40 94.01,242.40 93.33,242.40 92.64,242.40 91.95,242.40 91.26,242.40 90.57,242.40 89.88,242.40 89.19,242.40 88.50,242.40 87.81,242.40 87.12,242.40 86.43,242.40 85.74,242.40 85.06,242.40 84.37,242.40 83.68,242.40 82.99,242.40 82.30,242.40 81.61,242.40 80.92,242.40 "/>
	</g>
</g>
	</g>
	<g id="gnuplot_plot_2"><title>Mean</title>
<g fill="none" color="white" stroke="rgb( 31, 120, 180)" stroke-width="2.00" stroke-linecap="butt" stroke-linejoin="miter">
</g>
<g fill="none" color="black" stroke="currentColor" stroke-width="2.00" stroke-linecap="butt" stroke-linejoin="miter">
	<path stroke="rgb( 31, 120, 180)" d="M186.93,242.40 L186.93,57.55  "/></g>
	</g>
<g fill="none" color="black" stroke="currentColor" stroke-width="2.00" stroke-linecap="butt" stroke-linejoin="miter">
</g>
<g fill="none" color="black" stroke="black" stroke-width="1.00" stroke-linecap="butt" stroke-linejoin="miter">
</g>
<g fill="none" color="black" stroke="currentColor" stroke-width="1.00" stroke-linecap="butt" stroke-linejoin="miter">
	<path stroke="black" d="M80.92,18.01 L80.92,242.40 L424.82,242.40 L424.82,18.01 L80.92,18.01 Z  "/></g>
<g fill="none" color="black" stroke="currentColor" stroke-width="1.00" stroke-linecap="butt" stroke-linejoin="miter">
</g>
</g>
</svg>